<?xml version="1.0" encoding="UTF-8" standalone="no"?>
<svg
   xmlns:dc="http://purl.org/dc/elements/1.1/"
   xmlns:cc="http://creativecommons.org/ns#"
   xmlns:rdf="http://www.w3.org/1999/02/22-rdf-syntax-ns#"
   xmlns:svg="http://www.w3.org/2000/svg"
   xmlns="http://www.w3.org/2000/svg"
   id="svg8"
   version="1.1"
   viewBox="0 0 210 297"
   height="297mm"
   width="210mm">
  <defs
     id="defs2" />
  <metadata
     id="metadata5">
    <rdf:RDF>
      <cc:Work
         rdf:about="">
        <dc:format>image/svg+xml</dc:format>
        <dc:type
           rdf:resource="http://purl.org/dc/dcmitype/StillImage" />
        <dc:title></dc:title>
      </cc:Work>
    </rdf:RDF>
  </metadata>
  <g
     id="layer1">
    <path
       id="path815"
       d="m 11.492589,24.518716 c 0,0 -4.1791045,-6.326205 -4.2094945,-9.003642 -0.034646,-3.052431 1.5579408,-5.8619133 4.6103995,-5.8298165 2.890116,0.03039 4.485434,2.7739685 4.393243,5.6627735 -0.09067,2.841064 -4.794148,9.170685 -4.794148,9.170685 z"
       style="fill:#ff7f2a;stroke:#000000;stroke-width:0.26458332px;stroke-linecap:butt;stroke-linejoin:miter;stroke-opacity:1" />
    <path
       id="path821"
       d="m 11.492589,24.518716 c 0.813192,0.999324 0.507813,1.849505 10e-7,2.672695 -0.715884,1.713659 0.0063,1.835034 -0.03341,3.942226 -0.0059,-1.316908 -0.934384,-2.787593 0.03341,-3.942226"
       style="fill:none;stroke:#000000;stroke-width:0.26458332px;stroke-linecap:butt;stroke-linejoin:miter;stroke-opacity:1" />
    <path
       id="path850"
       d="M 8.4523987,17.619822 C 7.1838563,15.020673 8.058788,11.864471 10.139538,10.487065 8.9544936,12.002532 7.9099458,15.218952 8.4523987,17.619822 Z"
       style="fill:#ffffff;stroke:#ffe1c8;stroke-width:0.26458332px;stroke-linecap:butt;stroke-linejoin:miter;stroke-opacity:1" />
  </g>
</svg>
